<svg xmlns="http://www.w3.org/2000/svg" viewBox="0 0 7 7" width="512" height="512">
<rect width="7" height="7" fill="#ffffff"/>
<g fill="#0a0a0a"><circle cx="0.5" cy="0.5" r="0.42"/><circle cx="1.5" cy="0.5" r="0.42"/><circle cx="2.5" cy="0.5" r="0.42"/><circle cx="3.5" cy="0.5" r="0.42"/><circle cx="4.5" cy="0.5" r="0.42"/><circle cx="5.5" cy="0.5" r="0.42"/><circle cx="6.5" cy="0.5" r="0.42"/><circle cx="0.5" cy="1.5" r="0.42"/><circle cx="6.5" cy="1.5" r="0.42"/><circle cx="0.5" cy="2.5" r="0.42"/><circle cx="2.5" cy="2.5" r="0.42"/><circle cx="3.5" cy="2.5" r="0.42"/><circle cx="4.5" cy="2.5" r="0.42"/><circle cx="6.5" cy="2.5" r="0.42"/><circle cx="0.5" cy="3.5" r="0.42"/><circle cx="3.5" cy="3.5" r="0.42"/><circle cx="6.5" cy="3.5" r="0.42"/><circle cx="0.5" cy="4.5" r="0.42"/><circle cx="3.5" cy="4.5" r="0.42"/><circle cx="6.5" cy="4.5" r="0.42"/><circle cx="0.5" cy="5.5" r="0.42"/><circle cx="6.5" cy="5.5" r="0.42"/><circle cx="0.5" cy="6.5" r="0.42"/><circle cx="1.5" cy="6.5" r="0.42"/><circle cx="2.5" cy="6.5" r="0.42"/><circle cx="3.5" cy="6.5" r="0.42"/><circle cx="4.5" cy="6.5" r="0.42"/><circle cx="5.5" cy="6.5" r="0.42"/><circle cx="6.5" cy="6.5" r="0.42"/></g></svg>
